<svg width="48" height="48" viewBox="0 0 48 48" fill="none" xmlns="http://www.w3.org/2000/svg">
<path d="M24.3642 0C5.51663 0 0 15.5181 0 24.5416C0 42.3969 17.885 48.4701 23.2716 47.972H34.6581C36.7935 47.1118 32.7029 48.0869 33.6805 44.3128C24.901 49.1023 5.46642 41.7054 5.86581 24.5416C6.21086 9.71317 22.4281 7.98894 24.2109 7.98894C28.3898 7.98894 38.6262 11.6481 39.7955 20.4226C28.0064 18.4876 19.3419 25.8443 17.4824 33.5459C22.639 26.3424 34.7923 28.7564 40.1597 28.469C45.5272 28.1816 48 24.5416 48 20.6333C48 15.2116 42.8434 0 24.3642 0Z" fill="#EE4836"/>
<path d="M47.6758 44.4807L44.1862 40.9669C43.4978 40.2738 42.4696 40.1387 41.6412 40.5498L38.4644 37.3511V35.4877L34.6499 32.6071L32.7427 34.5275L35.6036 38.3684H37.4542L40.6309 41.5671C40.2256 42.4012 40.3568 43.4365 41.0452 44.1296L44.5348 47.6434C44.9699 48.0815 45.6732 48.0815 46.1053 47.6434L47.6758 46.062C48.1079 45.6239 48.1079 44.9158 47.6758 44.4807ZM42.6276 39.3586C43.4709 39.3586 44.2636 39.6886 44.8596 40.2888L45.4378 40.8709C45.9086 40.6639 46.3556 40.3758 46.743 39.9857C47.8487 38.8725 48.2241 37.3061 47.8725 35.8838C47.8069 35.6138 47.4702 35.5207 47.2735 35.7188L45.0563 37.9513L43.0329 37.6122L42.6961 35.5748L44.9133 33.3423C45.11 33.1442 45.0146 32.8052 44.7434 32.7361C43.3309 32.3851 41.7753 32.7632 40.6727 33.8734C39.8233 34.7286 39.424 35.8568 39.4449 36.9821L41.8915 39.4456C42.1329 39.3886 42.3832 39.3586 42.6276 39.3586ZM39.5313 41.8191L37.8416 40.1177L33.3 44.6937C32.555 45.4439 32.555 46.6592 33.3 47.4093C34.045 48.1595 35.2519 48.1595 35.9969 47.4093L39.6803 43.7005C39.4538 43.1034 39.3853 42.4522 39.5313 41.8191ZM34.6499 46.7702C34.2566 46.7702 33.9347 46.4461 33.9347 46.05C33.9347 45.6509 34.2536 45.3299 34.6499 45.3299C35.0463 45.3299 35.3652 45.6509 35.3652 46.05C35.3652 46.4461 35.0463 46.7702 34.6499 46.7702Z" fill="#EE4836"/>
</svg>
