<svg width="96" height="96" viewBox="0 0 96 96" fill="none" xmlns="http://www.w3.org/2000/svg">
<path d="M48.7284 0C11.0333 0 0 31.0362 0 49.0831C0 84.7939 35.77 96.9401 46.5431 95.9439H69.3163C73.587 94.2236 65.4057 96.1738 67.361 88.6255C49.8019 98.2046 10.9328 83.4107 11.7316 49.0831C12.4217 19.4263 44.8562 15.9779 48.4217 15.9779C56.7796 15.9779 77.2524 23.2963 79.591 40.8451C56.0128 36.9752 38.6837 51.6886 34.9649 67.0918C45.278 52.6849 69.5847 57.5127 80.3195 56.938C91.0543 56.3632 96 49.0831 96 41.2666C96 30.4231 85.6869 0 48.7284 0Z" fill="#EE4836"/>
<path d="M95.3516 88.9614L88.3723 81.9338C86.9955 80.5475 84.9393 80.2775 83.2824 81.0997L76.9289 74.7023V70.9755L69.2999 65.2142L65.4854 69.0551L71.2071 76.7367H74.9084L81.2619 83.1341C80.4513 84.8025 80.7135 86.8729 82.0903 88.2592L89.0696 95.2867C89.9398 96.1629 91.3464 96.1629 92.2106 95.2867L95.3516 92.1241C96.2158 91.2479 96.2158 89.8316 95.3516 88.9614ZM85.2552 78.7172C86.9419 78.7172 88.5273 79.3773 89.7193 80.5776L90.8756 81.7418C91.8173 81.3277 92.7113 80.7516 93.4861 79.9714C95.6973 77.7449 96.4483 74.6123 95.745 71.7677C95.6139 71.2275 94.9404 71.0415 94.547 71.4376L90.1127 75.9025L86.0657 75.2244L85.3922 71.1495L89.8266 66.6846C90.2199 66.2885 90.0292 65.6103 89.4869 65.4723C86.6617 64.7701 83.5506 65.5263 81.3453 67.7468C79.6467 69.4572 78.848 71.7136 78.8897 73.9641L83.783 78.8912C84.2658 78.7772 84.7664 78.7172 85.2552 78.7172ZM79.0626 83.6382L75.6832 80.2355L66.5999 89.3875C65.1099 90.8878 65.1099 93.3183 66.5999 94.8186C68.09 96.319 70.5038 96.319 71.9939 94.8186L79.3606 87.401C78.9076 86.2068 78.7705 84.9045 79.0626 83.6382ZM69.2999 93.5404C68.5131 93.5404 67.8695 92.8922 67.8695 92.1C67.8695 91.3019 68.5072 90.6597 69.2999 90.6597C70.0926 90.6597 70.7303 91.3019 70.7303 92.1C70.7303 92.8922 70.0926 93.5404 69.2999 93.5404Z" fill="#EE4836"/>
</svg>
